<svg width="57" height="16" viewBox="0 0 57 16" fill="none" xmlns="http://www.w3.org/2000/svg">
<path d="M9.42573 5.06178L10.8714 8.57262H7.98009L9.42573 5.06178ZM39.5589 5.21198H33.9828V6.77027H39.465V9.09831H33.9828V10.8256H39.5589V12.2149L43.4452 8.00939L39.5589 3.61614V5.21198ZM13.1994 0.818733H20.6905L22.3614 4.44222L23.9009 0.799957H43.3326L45.3602 3.03413L47.4442 0.799957H56.3621L49.7722 8.02816L56.3058 15.2H47.2377L45.21 12.9659L43.1073 15.2H11.4158L10.4959 12.9659H8.37435L7.4544 15.2H0.132324L6.29038 0.799957H12.7113L13.1994 0.818733ZM29.4394 2.84639H25.2339L22.4177 9.4738L19.3762 2.84639H15.2083V11.8582L11.3407 2.84639H7.6046L3.13625 13.1724H6.04631L6.96626 10.9382H11.8664L12.7864 13.1724H17.8931V5.79399L21.1786 13.1724H23.4128L26.6795 5.81277V13.1724H29.4206L29.4394 2.84639ZM46.9373 8.02816L51.6873 2.84639H48.2703L45.2663 6.07561L42.3563 2.84639H31.3169V13.1912H42.2061L45.2288 9.92439L48.1389 13.1912H51.6497L46.9373 8.02816Z" fill="#F7F7F7"/>
</svg>
