<svg width="45" height="18" viewBox="0 0 45 18" fill="none" xmlns="http://www.w3.org/2000/svg">
<g clip-path="url(#clip0_0_2594)">
<path d="M8.83005 2.41886C8.3238 3.01792 7.5138 3.49042 6.7038 3.42292C6.60255 2.61292 6.99911 1.75229 7.46317 1.22073C7.96942 0.604794 8.85536 0.166044 9.57255 0.132294C9.65692 0.976044 9.32786 1.80292 8.83005 2.41886ZM9.56411 3.58323C8.3913 3.51573 7.38724 4.24979 6.83036 4.24979C6.26505 4.24979 5.41286 3.61698 4.48474 3.63386C3.27818 3.65073 2.15599 4.33417 1.54005 5.42261C0.274426 7.59948 1.21099 10.8226 2.43443 12.5945C3.03349 13.472 3.75068 14.4339 4.69567 14.4001C5.59005 14.3664 5.94442 13.8179 7.02442 13.8179C8.11286 13.8179 8.42505 14.4001 9.37005 14.3832C10.3488 14.3664 10.9647 13.5057 11.5638 12.6282C12.2472 11.6326 12.5257 10.6623 12.5425 10.6117C12.5257 10.5948 10.6525 9.8776 10.6357 7.71761C10.6188 5.91198 12.1122 5.05136 12.1797 5.00073C11.336 3.75198 10.0197 3.61698 9.56411 3.58323ZM16.3394 1.13636V14.2904H18.3813V9.79323H21.2079C23.7897 9.79323 25.6038 8.02135 25.6038 5.45636C25.6038 2.89136 23.8235 1.13636 21.2754 1.13636H16.3394ZM18.3813 2.85761H20.7354C22.5072 2.85761 23.5197 3.80261 23.5197 5.46479C23.5197 7.12698 22.5072 8.08042 20.7269 8.08042H18.3813V2.85761ZM29.3332 14.3917C30.6157 14.3917 31.8054 13.742 32.3454 12.7126H32.3875V14.2904H34.2775V7.74292C34.2775 5.84448 32.7588 4.62104 30.4216 4.62104C28.2532 4.62104 26.65 5.86136 26.591 7.56573H28.4304C28.5822 6.75573 29.3332 6.22417 30.3625 6.22417C31.6113 6.22417 32.3116 6.80636 32.3116 7.87792V8.60354L29.7635 8.75542C27.3925 8.89885 26.11 9.86917 26.11 11.5567C26.11 13.261 27.4347 14.3917 29.3332 14.3917ZM29.8816 12.8307C28.7932 12.8307 28.1013 12.3076 28.1013 11.506C28.1013 10.6792 28.7679 10.1982 30.0419 10.1223L32.3116 9.97885V10.7214C32.3116 11.9532 31.2654 12.8307 29.8816 12.8307ZM36.8004 17.8679C38.7916 17.8679 39.7282 17.1085 40.5466 14.8051L44.1325 4.74761H42.0569L39.6522 12.5185H39.61L37.2054 4.74761H35.0707L38.53 14.3242L38.3444 14.9064C38.0322 15.8935 37.526 16.2732 36.6232 16.2732C36.4629 16.2732 36.1507 16.2564 36.0241 16.2395V17.8173C36.1422 17.851 36.6485 17.8679 36.8004 17.8679Z" fill="#F7F7F7"/>
</g>
<defs>
<clipPath id="clip0_0_2594">
<rect width="43.2" height="17.7356" fill="white" transform="translate(0.932617 0.132202)"/>
</clipPath>
</defs>
</svg>
