<svg width="36" height="22" viewBox="0 0 36 22" fill="none" xmlns="http://www.w3.org/2000/svg">
<path d="M0.47998 21.9089V16.7925H2.05871C3.20645 16.7925 3.94445 17.2235 3.94445 18.115C3.94445 18.6204 3.71065 18.9711 3.38239 19.1753C3.85707 19.395 4.13456 19.8189 4.13456 20.3963C4.13456 21.4271 3.38239 21.9089 2.21221 21.9089H0.47998ZM1.49547 18.9191H2.24882C2.70933 18.9191 2.90652 18.6924 2.90652 18.2767C2.90652 17.8304 2.54874 17.684 2.06579 17.684H1.49547V18.9191ZM1.49547 21.0174H2.12483C2.73885 21.0174 3.09663 20.8639 3.09663 20.3821C3.09663 19.9063 2.78962 19.7091 2.21221 19.7091H1.49547V21.0174ZM6.10531 21.9974C5.10399 21.9974 4.59979 21.5074 4.59979 20.8497C4.59979 20.1259 5.19137 19.702 6.06871 19.6949C6.28755 19.6988 6.50442 19.7185 6.71933 19.7539V19.5768C6.71933 19.1316 6.46309 18.9191 5.97424 18.9191C5.64402 18.9158 5.3162 18.9755 5.00835 19.095L4.8265 18.3063C5.1406 18.174 5.6448 18.0866 6.08996 18.0866C7.16449 18.0866 7.69939 18.657 7.69939 19.6429V21.6751C7.39947 21.8286 6.83741 21.9974 6.10531 21.9974ZM6.71933 21.1709V20.3892C6.54886 20.3503 6.37461 20.3305 6.19977 20.3302C5.86443 20.3302 5.60111 20.4624 5.60111 20.806C5.60111 21.113 5.82074 21.2736 6.20804 21.2736C6.384 21.2779 6.55868 21.2428 6.71933 21.1709ZM8.40905 21.9089V18.4078C8.93488 18.1974 9.4958 18.0884 10.0622 18.0866C11.1284 18.0866 11.7424 18.6121 11.7424 19.5851V21.9089H10.734V19.6583C10.734 19.1541 10.5002 18.9191 10.0539 18.9191C9.83236 18.9162 9.61282 18.9613 9.41037 19.0514V21.9089H8.40905ZM15.2671 18.3051L15.0782 19.1021C14.8168 18.9892 14.5363 18.9271 14.2516 18.9191C13.6589 18.9191 13.3377 19.3359 13.3377 20.0231C13.3377 20.7765 13.6742 21.1638 14.3024 21.1638C14.5835 21.1555 14.8598 21.0918 15.1136 20.9737L15.2754 21.7849C14.9448 21.9325 14.5846 22.0045 14.2221 21.9974C13.0083 21.9974 12.3069 21.2441 12.3069 20.0527C12.3069 18.8683 13.0012 18.0866 14.1643 18.0866C14.5421 18.0843 14.9188 18.1575 15.2671 18.3051ZM17.4469 21.9986C16.3216 21.9986 15.619 21.2158 15.619 20.0385C15.619 18.8695 16.3216 18.0878 17.4469 18.0878C18.5805 18.0878 19.2665 18.8695 19.2665 20.0397C19.2665 21.2158 18.5793 21.9986 17.4469 21.9986ZM17.4469 21.165C17.9664 21.165 18.2368 20.734 18.2368 20.0397C18.2368 19.3525 17.9653 18.9203 17.4469 18.9203C16.9356 18.9203 16.6499 19.3525 16.6499 20.0397C16.6499 20.734 16.9356 21.165 17.4469 21.165ZM19.851 21.9101V18.409C20.3765 18.1976 20.9373 18.089 21.5029 18.0878C22.5704 18.0878 23.1844 18.6133 23.1844 19.5863V21.9101H22.1748V19.6595C22.1748 19.1553 21.941 18.9203 21.4959 18.9203C21.2743 18.9174 21.0548 18.9625 20.8523 19.0525V21.9101H19.851ZM25.4598 21.9986C24.5896 21.9986 24.1432 21.5228 24.1432 20.5581V18.9793H23.6473V18.1752H24.1432V17.364L25.1516 17.312V18.1752H25.964V18.9793H25.1516V20.5439C25.1516 20.9678 25.3276 21.165 25.657 21.165C25.7869 21.165 25.916 21.1504 26.0443 21.1213L26.0951 21.9325C25.8849 21.9797 25.6727 22.0018 25.4586 21.9986M28.0044 21.9986C27.0031 21.9986 26.4977 21.5086 26.4977 20.8509C26.4977 20.1271 27.0905 19.7032 27.9678 19.6961C28.1851 19.7 28.4016 19.7197 28.6173 19.7551V19.578C28.6173 19.1328 28.3622 18.9203 27.8734 18.9203C27.5431 18.917 27.2153 18.9767 26.9075 19.0962L26.7244 18.3074C27.0397 18.1752 27.5439 18.0878 27.9891 18.0878C29.0636 18.0878 29.5973 18.6581 29.5973 19.6441V21.6763C29.2974 21.8298 28.7365 21.9986 28.0044 21.9986ZM28.6173 21.1721V20.3904C28.4468 20.3515 28.2725 20.3317 28.0977 20.3313C27.7612 20.3313 27.499 20.4636 27.499 20.8072C27.499 21.1142 27.7175 21.2748 28.1048 21.2748C28.2811 21.2793 28.4563 21.2442 28.6173 21.1721ZM33.0476 18.3063L32.8587 19.1033C32.5973 18.9904 32.3168 18.9283 32.0321 18.9203C31.4394 18.9203 31.1182 19.3371 31.1182 20.0243C31.1182 20.7777 31.4547 21.165 32.0829 21.165C32.3639 21.1567 32.6391 21.093 32.8941 20.9749L33.0547 21.7861C32.7241 21.9337 32.3651 22.0057 32.0026 21.9986C30.7887 21.9986 30.0874 21.2453 30.0874 20.0539C30.0874 18.8695 30.7817 18.0878 31.9436 18.0878C32.3226 18.0855 32.6993 18.1598 33.0476 18.3074M35.2652 21.9998C34.3961 21.9998 33.9498 21.5239 33.9498 20.5592V18.9805H33.4538V18.1764H33.9498V17.3652L34.9582 17.3132V18.1764H35.7705V18.9805H34.9593V20.5451C34.9593 20.969 35.1353 21.1662 35.4647 21.1662C35.5946 21.1662 35.7237 21.1516 35.852 21.1225L35.9028 21.9337C35.6934 21.9809 35.4801 22.003 35.2652 21.9998Z" fill="#F7F7F7"/>
<path d="M7.51637 14.2346C12.8536 14.2346 15.5222 10.6757 18.192 7.11792H0.47998V14.2346H7.51637Z" fill="#F7F7F7"/>
<path d="M28.8675 0.000244141C23.5303 0.000244141 20.8617 3.55917 18.1919 7.1181H35.9039V0.000244141H28.8675Z" fill="#F7F7F7"/>
</svg>
