<svg width="56" height="20" viewBox="0 0 56 20" fill="none" xmlns="http://www.w3.org/2000/svg">
<path d="M5.74681 3.73784C6.19128 3.83256 6.5483 4.05479 6.81789 4.40453C7.08748 4.74698 7.22228 5.14044 7.22228 5.5849C7.22228 6.22609 6.9964 6.73613 6.54466 7.11501C6.1002 7.48661 5.47722 7.67241 4.67574 7.67241H1.10184V0H4.55552C5.33514 0 5.94354 0.178513 6.38072 0.535538C6.82518 0.892564 7.04741 1.3771 7.04741 1.98914C7.04741 2.44089 6.92719 2.81613 6.68674 3.11487C6.45358 3.4136 6.14027 3.62126 5.74681 3.73784ZM2.97076 3.10394H4.19485C4.50087 3.10394 4.73403 3.03836 4.89433 2.90721C5.06191 2.76877 5.1457 2.5684 5.1457 2.30609C5.1457 2.04379 5.06191 1.84342 4.89433 1.70498C4.73403 1.56654 4.50087 1.49732 4.19485 1.49732H2.97076V3.10394ZM4.34786 6.16416C4.66117 6.16416 4.90161 6.09494 5.06919 5.9565C5.24406 5.81077 5.3315 5.60312 5.3315 5.33353C5.3315 5.06393 5.24042 4.85263 5.05827 4.69962C4.8834 4.54661 4.63931 4.47011 4.326 4.47011H2.97076V6.16416H4.34786Z" fill="white"/>
<path d="M13.0824 6.31717H10.2189L9.75985 7.67241H7.8035L10.5796 0H12.7436L15.5196 7.67241H13.5414L13.0824 6.31717ZM12.6015 4.87449L11.6506 2.06565L10.7107 4.87449H12.6015Z" fill="white"/>
<path d="M23.2281 7.67241H21.3592L18.2334 2.94V7.67241H16.3645V0H18.2334L21.3592 4.75427V0H23.2281V7.67241Z" fill="white"/>
<path d="M29.0311 7.67241L26.4518 4.28431V7.67241H24.5829V0H26.4518V3.36624L29.0093 0H31.2061L28.2333 3.7597L31.3154 7.67241H29.0311Z" fill="white"/>
<path d="M6.62116 12.2511V13.7484H4.5883V19.9235H2.71938V13.7484H0.686523V12.2511H6.62116Z" fill="white"/>
<path d="M11.4718 19.9235L9.87615 17.0272H9.42804V19.9235H7.55912V12.2511H10.6958C11.3006 12.2511 11.8143 12.3567 12.2369 12.568C12.6668 12.7793 12.9874 13.0708 13.1987 13.4424C13.41 13.8067 13.5156 14.2147 13.5156 14.6665C13.5156 15.1765 13.3699 15.6319 13.0784 16.0326C12.7943 16.4334 12.3717 16.7176 11.8106 16.8851L13.5812 19.9235H11.4718ZM9.42804 15.7048H10.5866C10.929 15.7048 11.184 15.621 11.3516 15.4534C11.5265 15.2858 11.6139 15.049 11.6139 14.743C11.6139 14.4515 11.5265 14.222 11.3516 14.0544C11.184 13.8868 10.929 13.8031 10.5866 13.8031H9.42804V15.7048Z" fill="white"/>
<path d="M19.4649 18.5683H16.6015L16.1424 19.9235H14.1861L16.9621 12.2511H19.1261L21.9022 19.9235H19.924L19.4649 18.5683ZM18.9841 17.1256L18.0332 14.3167L17.0933 17.1256H18.9841Z" fill="white"/>
<path d="M29.6107 19.9235H27.7418L24.616 15.1911V19.9235H22.7471V12.2511H24.616L27.7418 17.0054V12.2511H29.6107V19.9235Z" fill="white"/>
<path d="M33.7415 20C33.1805 20 32.6777 19.9089 32.2333 19.7268C31.7888 19.5446 31.4318 19.275 31.1622 18.918C30.8999 18.561 30.7614 18.1311 30.7469 17.6283H32.736C32.7651 17.9125 32.8635 18.1311 33.0311 18.2841C33.1987 18.4298 33.4173 18.5027 33.6869 18.5027C33.9637 18.5027 34.1823 18.4407 34.3426 18.3169C34.5029 18.1857 34.5831 18.0072 34.5831 17.7813C34.5831 17.5919 34.5175 17.4352 34.3863 17.3114C34.2625 17.1875 34.1058 17.0855 33.9164 17.0054C33.7342 16.9252 33.4719 16.8341 33.1295 16.7321C32.634 16.5791 32.2296 16.4261 31.9163 16.2731C31.603 16.1201 31.3334 15.8942 31.1075 15.5955C30.8817 15.2967 30.7687 14.9069 30.7687 14.426C30.7687 13.712 31.0274 13.1546 31.5447 12.7538C32.062 12.3458 32.736 12.1418 33.5666 12.1418C34.4118 12.1418 35.0931 12.3458 35.6104 12.7538C36.1277 13.1546 36.4046 13.7156 36.4411 14.437H34.4191C34.4046 14.1892 34.3135 13.9961 34.1459 13.8577C33.9783 13.712 33.7634 13.6391 33.5011 13.6391C33.2752 13.6391 33.093 13.701 32.9546 13.8249C32.8162 13.9415 32.7469 14.1127 32.7469 14.3386C32.7469 14.5863 32.8635 14.7794 33.0967 14.9179C33.3298 15.0563 33.6941 15.2057 34.1896 15.366C34.6851 15.5335 35.0858 15.6938 35.3918 15.8468C35.7051 15.9999 35.9747 16.2221 36.2006 16.5135C36.4265 16.805 36.5394 17.1802 36.5394 17.6393C36.5394 18.0764 36.4265 18.4735 36.2006 18.8306C35.982 19.1876 35.6614 19.4717 35.2388 19.683C34.8162 19.8944 34.3171 20 33.7415 20Z" fill="white"/>
<path d="M42.6843 12.2511V13.7484H39.5585V15.366H41.8974V16.8196H39.5585V19.9235H37.6896V12.2511H42.6843Z" fill="white"/>
<path d="M45.5355 13.7484V15.3004H48.0383V16.7431H45.5355V18.4262H48.3662V19.9235H43.6666V12.2511H48.3662V13.7484H45.5355Z" fill="white"/>
<path d="M53.4922 19.9235L51.8965 17.0272H51.4484V19.9235H49.5795V12.2511H52.7162C53.321 12.2511 53.8347 12.3567 54.2573 12.568C54.6872 12.7793 55.0078 13.0708 55.2191 13.4424C55.4304 13.8067 55.536 14.2147 55.536 14.6665C55.536 15.1765 55.3903 15.6319 55.0988 16.0326C54.8147 16.4334 54.3921 16.7176 53.831 16.8851L55.6016 19.9235H53.4922ZM51.4484 15.7048H52.6069C52.9494 15.7048 53.2044 15.621 53.372 15.4534C53.5469 15.2858 53.6343 15.049 53.6343 14.743C53.6343 14.4515 53.5469 14.222 53.372 14.0544C53.2044 13.8868 52.9494 13.8031 52.6069 13.8031H51.4484V15.7048Z" fill="white"/>
</svg>
