<svg width="46" height="7" viewBox="0 0 46 7" fill="none" xmlns="http://www.w3.org/2000/svg">
<path d="M14.8314 2.66604C14.6304 2.93825 14.2941 3.41147 14.0894 3.68787C13.9855 3.82842 13.7978 4.08361 14.42 4.08361C15.0782 4.08361 17.6956 4.08361 17.6956 4.08361C17.6956 4.08361 18.2235 3.3654 18.6661 2.76471C19.2681 1.94757 18.7182 0.247314 16.5659 0.247314C14.6396 0.247314 8.08981 0.247314 8.08981 0.247314L6.62015 2.24412C6.62015 2.24412 14.2391 2.24412 14.6301 2.24412C15.0345 2.24412 15.029 2.39802 14.8314 2.66604ZM12.425 4.57621C11.8028 4.57621 11.9905 4.32049 12.0944 4.17993C12.2991 3.90354 12.6409 3.43529 12.8419 3.16308C13.0398 2.89506 13.045 2.74116 12.6401 2.74116C12.2494 2.74116 8.97684 2.74116 8.97684 2.74116L6.02522 6.75256C6.02522 6.75256 11.2969 6.75256 13.2233 6.75256C15.6007 6.75256 16.9243 5.13554 17.3323 4.57647C17.3323 4.57621 13.083 4.57621 12.425 4.57621ZM17.1075 6.75256H21.3301L22.9309 4.57594L18.7088 4.57647C18.7075 4.57621 17.1075 6.75256 17.1075 6.75256ZM28.0023 0.247314L26.3827 2.44723H24.4982L26.117 0.247314H21.8957L19.0716 4.08361H29.3998L32.2231 0.247314H28.0023ZM23.2146 6.75256H27.4357L29.0373 4.57647H24.8162C24.8146 4.57621 23.2146 6.75256 23.2146 6.75256ZM0 5.43471V5.89694H5.88074L6.22047 5.43471H0ZM6.85257 4.57621H0V5.03791H6.51205L6.85257 4.57621ZM0 6.75256H5.25073L5.5889 6.29295H0V6.75256ZM39.8031 5.89668H46V5.43445H40.1433L39.8031 5.89668ZM39.1736 6.75256H46V6.29295H39.5115L39.1736 6.75256ZM40.7744 4.57621L40.4349 5.03844H46V4.57621H40.7744ZM35.2454 4.08361L38.0693 0.247314H33.5986C33.597 0.247314 30.7726 4.08361 30.7726 4.08361H35.2454ZM30.4106 4.57621C30.4106 4.57621 30.102 4.99787 29.952 5.20098C29.422 5.91709 29.8908 6.75256 31.6209 6.75256C33.6195 6.75256 38.4002 6.75256 38.4002 6.75256L40.0017 4.57647L30.4106 4.57621Z" fill="#D50029"/>
</svg>
