<svg width="32" height="10" viewBox="0 0 32 10" fill="none" xmlns="http://www.w3.org/2000/svg">
<path d="M29.169 9.55763L27.8581 8.08758L26.5588 9.55763H23.8249L26.4969 6.55569L23.8249 3.5529H26.6442L27.9683 5.01162L29.2423 3.5529H31.963L29.3043 6.54309L31.9999 9.55763H29.169ZM18.5752 9.55763V0.098175H23.8249V2.20671H20.7989V3.5529H23.8249V5.58175H20.7989V7.44386H23.8249V9.55763H18.5752Z" fill="#FF5A00"/>
<path d="M16.361 0.098175V3.96946H16.3365C15.8462 3.40598 15.2333 3.20952 14.5228 3.20952C13.0668 3.20952 11.9698 4.20003 11.5848 5.50857C11.1456 4.06641 10.0132 3.18249 8.33406 3.18249C6.97018 3.18249 5.89362 3.79437 5.33127 4.79181V3.55248H2.51263V2.20671H5.58888V0.0985997H0V9.55748H2.51249V5.5816H5.01677C4.93963 5.88733 4.90113 6.20155 4.90198 6.51691C4.90198 8.48913 6.40911 9.8751 8.33335 9.8751C9.95088 9.8751 11.0177 9.11503 11.5814 7.73118H9.42803C9.13702 8.1476 8.9158 8.2706 8.3335 8.2706C7.65849 8.2706 7.07605 7.6815 7.07605 6.98399H11.4607C11.6509 8.55085 12.8717 9.90185 14.5471 9.90185C15.2698 9.90185 15.9315 9.54644 16.3361 8.94603H16.3604V9.5589H18.5757V0.0985997H16.3608V0.098175H16.361ZM7.14611 5.60991C7.28609 5.00879 7.75205 4.61601 8.33364 4.61601C8.97411 4.61601 9.41642 4.99662 9.53249 5.60991H7.14597H7.14611ZM15.0165 8.11801C14.2002 8.11801 13.6929 7.35752 13.6929 6.56305C13.6929 5.7138 14.1344 4.89796 15.0165 4.89796C15.8986 4.89796 16.2966 5.71423 16.2966 6.56305C16.2966 7.36757 15.9105 8.11801 15.0165 8.11801Z" fill="#29007C"/>
</svg>
