<svg width="43" height="20" viewBox="0 0 43 20" fill="none" xmlns="http://www.w3.org/2000/svg">
<g clip-path="url(#clip0_31_297)">
<path d="M19.9742 10.3413V15.2231H18.3994V3.14966H22.4939C23.4913 3.14966 24.4362 3.51711 25.1711 4.19953C25.906 4.82945 26.2734 5.77433 26.2734 6.77171C26.2734 7.76908 25.906 8.66147 25.1711 9.34388C24.4362 10.0263 23.5438 10.3938 22.4939 10.3938L19.9742 10.3413ZM19.9742 4.61947V8.81895H22.5989C23.1763 8.81895 23.7537 8.60898 24.1212 8.18903C24.9611 7.40163 24.9611 6.08929 24.1737 5.30189L24.1212 5.2494C23.7013 4.82945 23.1763 4.56698 22.5989 4.61947H19.9742Z" fill="#F7F7F7"/>
<path d="M29.896 6.71924C31.0508 6.71924 31.9432 7.0342 32.6256 7.66412C33.308 8.29404 33.623 9.13394 33.623 10.1838V15.2232H32.1532V14.0683H32.1007C31.4708 15.0132 30.5784 15.4856 29.5285 15.4856C28.6361 15.4856 27.8487 15.2232 27.2188 14.6982C26.6414 14.1733 26.2739 13.4384 26.2739 12.651C26.2739 11.8111 26.5889 11.1287 27.2188 10.6038C27.8487 10.0788 28.7411 9.86884 29.791 9.86884C30.7359 9.86884 31.4708 10.0263 32.0482 10.3938V10.0263C32.0482 9.50139 31.8382 8.97646 31.4183 8.6615C30.9983 8.29404 30.4734 8.08407 29.896 8.08407C29.0036 8.08407 28.3212 8.45152 27.8487 9.18643L26.4839 8.34653C27.3238 7.24417 28.4262 6.71924 29.896 6.71924ZM27.9012 12.7035C27.9012 13.1234 28.1112 13.4909 28.4262 13.7009C28.7936 13.9633 29.2136 14.1208 29.6335 14.1208C30.2634 14.1208 30.8933 13.8583 31.3658 13.3859C31.8907 12.9135 32.1532 12.336 32.1532 11.7061C31.6808 11.3387 30.9983 11.1287 30.1059 11.1287C29.476 11.1287 28.9511 11.2862 28.5311 11.6011C28.1112 11.8636 27.9012 12.2311 27.9012 12.7035Z" fill="#F7F7F7"/>
<path d="M42.1267 6.98169L36.9299 18.8977H35.3551L37.2973 14.7507L33.8853 7.03418H35.565L38.0322 12.9659H38.0847L40.4994 7.03418H42.1267V6.98169Z" fill="#F7F7F7"/>
<path d="M13.7282 9.29135C13.7282 8.81891 13.6757 8.34646 13.6232 7.87402H7.06152V10.5512H10.7886C10.6311 11.3911 10.1586 12.1785 9.42373 12.6509V14.3832H11.6809C12.9933 13.1759 13.7282 11.3911 13.7282 9.29135Z" fill="#F7F7F7"/>
<path d="M7.06141 16.0631C8.95118 16.0631 10.526 15.4332 11.6808 14.3833L9.42362 12.651C8.7937 13.071 8.00629 13.3334 7.06141 13.3334C5.27664 13.3334 3.70183 12.1261 3.1769 10.4463H0.867188V12.2311C2.07454 14.5933 4.43674 16.0631 7.06141 16.0631Z" fill="#F7F7F7"/>
<path d="M3.17688 10.4461C2.86192 9.60618 2.86192 8.6613 3.17688 7.76891V5.98413H0.867172C-0.130203 7.92639 -0.130203 10.2361 0.867172 12.2309L3.17688 10.4461Z" fill="#F7F7F7"/>
<path d="M7.06117 4.93439C8.05854 4.93439 9.00342 5.30184 9.73833 5.98426L11.7331 3.98951C10.4732 2.83465 8.79345 2.15224 7.11366 2.20473C4.48899 2.20473 2.07429 3.67454 0.919434 6.03675L3.22914 7.82153C3.70159 6.14174 5.27639 4.93439 7.06117 4.93439Z" fill="#F7F7F7"/>
</g>
<defs>
<clipPath id="clip0_31_297">
<rect width="41.9948" height="20" fill="white" transform="translate(0.132324)"/>
</clipPath>
</defs>
</svg>
