<svg width="29" height="24" viewBox="0 0 29 24" fill="none" xmlns="http://www.w3.org/2000/svg">
<path fill-rule="evenodd" clip-rule="evenodd" d="M14.9764 24H2.59236C1.49316 24 0.601562 23.1144 0.601562 22.0236V1.9764C0.601562 0.8844 1.49316 0 2.59356 0H14.9764C26.7268 0 28.48 7.506 28.48 11.9748C28.48 19.7268 23.6764 24 14.9764 24ZM2.59236 0.66C1.85676 0.66 1.26516 1.2456 1.26516 1.9764V22.0236C1.26516 22.7544 1.85676 23.3412 2.59236 23.3412H14.9764C23.2528 23.3412 27.8164 19.3044 27.8164 11.9748C27.8164 2.1312 19.768 0.6588 14.9764 0.6588L2.59236 0.66ZM4.72956 13.632C4.98328 13.6329 5.23469 13.5839 5.46946 13.4877C5.70422 13.3915 5.91773 13.25 6.09781 13.0712C6.27788 12.8925 6.42098 12.68 6.51895 12.446C6.61691 12.212 6.66782 11.9609 6.66876 11.7072C6.66798 11.4534 6.61718 11.2022 6.51929 10.968C6.4214 10.7339 6.27832 10.5213 6.09823 10.3424C5.91814 10.1635 5.70458 10.0219 5.46973 9.92562C5.23489 9.82933 4.98338 9.78025 4.72956 9.7812C4.47585 9.78025 4.22443 9.82929 3.98967 9.92551C3.7549 10.0217 3.54139 10.1632 3.36132 10.342C3.18125 10.5207 3.03814 10.7332 2.94018 10.9672C2.84221 11.2012 2.79131 11.4523 2.79036 11.706C2.79115 11.9598 2.84194 12.211 2.93984 12.4452C3.03773 12.6793 3.18081 12.8919 3.3609 13.0708C3.54098 13.2497 3.75455 13.3913 3.98939 13.4876C4.22423 13.5839 4.47575 13.6329 4.72956 13.632ZM3.25716 18.4812C3.25826 18.8653 3.33509 19.2455 3.48326 19.5999C3.63142 19.9543 3.84801 20.276 4.12063 20.5466C4.39325 20.8172 4.71656 21.0314 5.07205 21.177C5.42754 21.3225 5.80824 21.3965 6.19236 21.3948H6.20196V16.206C6.20196 15.3924 5.53836 14.7444 4.72956 14.7444C3.90996 14.7444 3.25716 15.4032 3.25716 16.206V18.4812Z" fill="#F7F7F7"/>
<path d="M8.19434 3.91233V21.3963H15.8587C22.8187 21.3963 25.8355 17.4939 25.8355 11.9751C25.8355 6.69273 22.8175 2.59473 15.8587 2.59473H9.52154C8.78474 2.59473 8.19434 3.19233 8.19434 3.91233Z" fill="#F7F7F7"/>
<path fill-rule="evenodd" clip-rule="evenodd" d="M11.6479 9.74011C11.4043 9.65644 11.1482 9.61465 10.8907 9.61651V9.60571H9.09668V13.7865H10.9111C11.2327 13.7865 11.5123 13.7241 11.7511 13.6209C11.9899 13.5081 12.1867 13.3641 12.3427 13.1781C12.5034 12.9809 12.6233 12.7537 12.6955 12.5097C12.7675 12.2517 12.8095 11.9733 12.8095 11.6649C12.8143 11.3568 12.7652 11.0501 12.6643 10.7589C12.568 10.524 12.4311 10.3079 12.2599 10.1205C12.0858 9.95094 11.877 9.82115 11.6479 9.74011ZM11.2219 12.9621C11.0946 13.0027 10.9619 13.0238 10.8283 13.0245V13.0341H10.0087V10.3989H10.6723C10.8987 10.3989 11.0891 10.4297 11.2435 10.4913C11.3884 10.5523 11.5161 10.6479 11.6155 10.7697C11.7166 10.8962 11.788 11.0439 11.8243 11.2017C11.8651 11.3661 11.8867 11.5617 11.8867 11.7681C11.8867 12.0045 11.8555 12.1905 11.7931 12.3549C11.7394 12.4994 11.6583 12.6323 11.5543 12.7461C11.4639 12.8455 11.3494 12.9199 11.2219 12.9621ZM16.5535 10.3881V9.60571H13.4107V13.7865H16.6051V13.0137H14.3335V11.9937H16.3771V11.2845H14.3335V10.3881H16.5535ZM19.7275 9.61651L21.3043 13.7961H20.3395L20.0179 12.8697H18.4411L18.1099 13.7961H17.1763L18.7627 9.61651H19.7275ZM19.7791 12.1797L19.2511 10.6461H19.2391L18.6907 12.1797H19.7791ZM22.8067 13.0245V9.61651H21.8839V13.7961H24.8599V13.0245H22.8067Z" fill="#1A1A1A"/>
</svg>
