<svg width="37" height="24" viewBox="0 0 37 24" fill="none" xmlns="http://www.w3.org/2000/svg">
<path d="M13.853 11.9976C13.853 8.57545 15.4396 5.3088 18.1152 3.19326C13.2619 -0.633375 6.19969 0.206618 2.37305 5.09103C-1.42248 9.94432 -0.582487 16.9754 4.30192 20.802C8.37745 24.0064 14.0707 24.0064 18.1463 20.802C15.4396 18.6865 13.853 15.4198 13.853 11.9976Z" fill="#F7F7F7"/>
<path d="M36.253 11.9976C36.253 18.1887 31.2442 23.1975 25.0531 23.1975C22.5331 23.1975 20.1065 22.3575 18.1465 20.802C22.9998 16.9754 23.8398 9.94429 20.0131 5.05989C19.4531 4.37545 18.8309 3.72212 18.1465 3.19323C22.9998 -0.633406 30.062 0.206588 33.8575 5.091C35.413 7.05098 36.253 9.47763 36.253 11.9976Z" fill="#F7F7F7"/>
<mask id="path-3-outside-1_31_353" maskUnits="userSpaceOnUse" x="12.875" y="2.19226" width="11" height="20" fill="black">
<rect fill="white" x="12.875" y="2.19226" width="11" height="20"/>
<path d="M18.1875 3.19226C20.8119 5.25178 22.5 8.45008 22.5 12.0448C22.5 15.6395 20.8119 18.8378 18.1875 20.8973C15.5631 18.8378 13.875 15.6395 13.875 12.0448C13.875 8.45007 15.5631 5.25178 18.1875 3.19226Z"/>
</mask>
<path d="M18.1875 3.19226C20.8119 5.25178 22.5 8.45008 22.5 12.0448C22.5 15.6395 20.8119 18.8378 18.1875 20.8973C15.5631 18.8378 13.875 15.6395 13.875 12.0448C13.875 8.45007 15.5631 5.25178 18.1875 3.19226Z" fill="#F7F7F7"/>
<path d="M18.1875 3.19226L18.6505 2.60225L18.1875 2.23889L17.7245 2.60225L18.1875 3.19226ZM22.5 12.0448H23.25V12.0448L22.5 12.0448ZM18.1875 20.8973L17.7245 21.4873L18.1875 21.8507L18.6505 21.4873L18.1875 20.8973ZM13.875 12.0448L13.125 12.0448V12.0448H13.875ZM18.1875 3.19226L17.7245 3.78227C20.1759 5.70605 21.75 8.69061 21.75 12.0448L22.5 12.0448L23.25 12.0448C23.25 8.20954 21.4479 4.79751 18.6505 2.60225L18.1875 3.19226ZM22.5 12.0448H21.75C21.75 15.399 20.1759 18.3835 17.7245 20.3073L18.1875 20.8973L18.6505 21.4873C21.4478 19.2921 23.25 15.8801 23.25 12.0448H22.5ZM18.1875 20.8973L18.6505 20.3073C16.1991 18.3835 14.625 15.399 14.625 12.0448H13.875H13.125C13.125 15.8801 14.9272 19.2921 17.7245 21.4873L18.1875 20.8973ZM13.875 12.0448L14.625 12.0448C14.625 8.69061 16.1991 5.70605 18.6505 3.78227L18.1875 3.19226L17.7245 2.60225C14.9271 4.79751 13.125 8.20954 13.125 12.0448L13.875 12.0448Z" fill="#1A1A1A" mask="url(#path-3-outside-1_31_353)"/>
</svg>
