<svg width="48" height="16" viewBox="0 0 48 16" fill="none" xmlns="http://www.w3.org/2000/svg">
<g clip-path="url(#clip0_27_268)">
<path d="M47.9326 0V11.949H45.2138V0H47.9326ZM44.2129 4.03276V11.9709H41.7962V11.2866C41.4904 11.5851 41.141 11.8107 40.7552 11.9709C40.3658 12.1383 39.9436 12.2257 39.4922 12.2257C38.9244 12.2257 38.3967 12.1201 37.9126 11.909C37.4285 11.687 37.0063 11.3849 36.6497 11.0064C36.2893 10.6242 36.0054 10.1802 35.7943 9.67425C35.5941 9.15741 35.4959 8.60054 35.4959 8.00728C35.4959 7.41401 35.5941 6.86442 35.7943 6.3585C36.0054 5.84167 36.2893 5.39035 36.6497 5.00818C37.0055 4.62893 37.4353 4.32667 37.9126 4.1201C38.3967 3.89808 38.9244 3.78525 39.4922 3.78525C39.9436 3.78525 40.3658 3.86897 40.7552 4.04003C41.1446 4.20018 41.4941 4.42584 41.7962 4.72429V4.04003H44.2129V4.03276ZM39.929 9.80892C40.424 9.80892 40.828 9.64149 41.1446 9.29936C41.4722 8.96087 41.636 8.52775 41.636 8C41.636 7.47225 41.4722 7.03549 41.1446 6.70064C40.828 6.36215 40.4203 6.19108 39.929 6.19108C39.4376 6.19108 39.0227 6.35851 38.6951 6.70064C38.3785 7.03913 38.222 7.47225 38.222 8C38.222 8.52775 38.3821 8.96451 38.6951 9.29936C39.0227 9.63785 39.434 9.80892 39.929 9.80892ZM31.616 0C32.333 0 32.9445 0.101911 33.4504 0.302093C33.9563 0.502275 34.3821 0.78253 34.7315 1.14286C35.0882 1.5141 35.3685 1.93631 35.5687 2.4131C35.7689 2.8899 35.8671 3.4031 35.8671 3.95269C35.8671 4.50228 35.7689 5.01547 35.5687 5.49227C35.3722 5.96466 35.0882 6.39565 34.7315 6.76251C34.3858 7.12284 33.9563 7.4031 33.4504 7.60328C32.9445 7.80346 32.333 7.90537 31.616 7.90537H30.3057V11.9672H27.5396V0H31.616ZM31.2193 5.44495C31.5905 5.44495 31.8708 5.40855 32.0746 5.33212C32.2857 5.24841 32.4604 5.13922 32.5951 5.01547C32.879 4.74977 33.0209 4.39672 33.0209 3.95268C33.0209 3.50864 32.879 3.15559 32.5951 2.8899C32.4568 2.76251 32.2857 2.6606 32.0746 2.5878C31.8744 2.50409 31.5905 2.46042 31.2193 2.46042H30.3021V5.44495H31.2193ZM17.3485 4.03276H20.3512L22.3894 7.83985H22.4222L24.2384 4.03276H27.0191L21.0609 16H18.2948L21.0136 10.5259L17.3485 4.03276ZM16.8134 4.03276V11.9709H14.3967V11.2866C14.091 11.5851 13.7416 11.8107 13.3557 11.9709C12.9663 12.1383 12.5441 12.2257 12.0928 12.2257C11.525 12.2257 10.9972 12.1201 10.5132 11.909C10.0291 11.687 9.60688 11.3849 9.2502 11.0064C8.89351 10.6242 8.60597 10.1802 8.39487 9.67425C8.19469 9.15741 8.09642 8.60054 8.09642 8.00728C8.09642 7.41401 8.19469 6.86442 8.39487 6.3585C8.60597 5.84167 8.88987 5.39035 9.2502 5.00818C9.60536 4.62814 10.0354 4.32576 10.5132 4.1201C10.9972 3.89808 11.525 3.78525 12.0928 3.78525C12.5441 3.78525 12.9663 3.86897 13.3557 4.04003C13.7452 4.20018 14.0946 4.42584 14.3967 4.72429V4.04003H16.8134V4.03276ZM12.5295 9.80892C13.0245 9.80892 13.4285 9.64149 13.7488 9.29936C14.0764 8.96087 14.2402 8.52775 14.2402 8C14.2402 7.47225 14.0764 7.03549 13.7488 6.70064C13.4322 6.36215 13.0245 6.19108 12.5295 6.19108C12.0345 6.19108 11.6233 6.35851 11.2957 6.70064C10.979 7.03913 10.8225 7.47225 10.8225 8C10.8225 8.52775 10.9827 8.96451 11.2957 9.29936C11.6233 9.63785 12.0345 9.80892 12.5295 9.80892ZM4.32936 0C5.04638 0 5.65784 0.101911 6.16376 0.302093C6.66967 0.502275 7.09551 0.78253 7.44492 1.14286C7.80161 1.5141 8.08187 1.93631 8.28205 2.4131C8.48223 2.8899 8.5805 3.4031 8.5805 3.95269C8.5805 4.50228 8.48223 5.01547 8.28205 5.49227C8.08557 5.96466 7.80154 6.39565 7.44492 6.76251C7.09915 7.12284 6.66967 7.4031 6.16376 7.60328C5.65784 7.80346 5.04638 7.90537 4.32936 7.90537H3.01908V11.9672H0.25293V0H4.32936ZM3.93628 5.44495C4.30752 5.44495 4.58778 5.40855 4.7916 5.33212C5.0027 5.24841 5.1774 5.13922 5.31207 5.01547C5.59597 4.74977 5.73792 4.39672 5.73792 3.95268C5.73792 3.50864 5.59597 3.15559 5.31207 2.8899C5.17377 2.76251 5.0027 2.6606 4.7916 2.5878C4.59142 2.50409 4.30752 2.46042 3.93628 2.46042H3.01908V5.44495H3.93628Z" fill="#F7F7F7"/>
</g>
<defs>
<clipPath id="clip0_27_268">
<rect width="47.6797" height="16" fill="white" transform="translate(0.25293)"/>
</clipPath>
</defs>
</svg>
