<svg width="36" height="21" viewBox="0 0 36 21" fill="none" xmlns="http://www.w3.org/2000/svg">
<path d="M14.7375 14.0348C14.7641 14.4891 14.6931 14.9439 14.5292 15.3685C14.3653 15.7931 14.1123 16.1777 13.7873 16.4963C13.4623 16.8149 13.0728 17.0602 12.6451 17.2157C12.2173 17.3711 11.7612 17.4331 11.3075 17.3975C10.8551 17.4306 10.4009 17.3667 9.97516 17.2101C9.54945 17.0535 9.16209 16.8079 8.83897 16.4895C8.51585 16.1712 8.26442 15.7875 8.10151 15.3642C7.9386 14.9408 7.86795 14.4876 7.89429 14.0348C7.85308 13.574 7.91351 13.1098 8.07131 12.6749C8.22911 12.2401 8.48044 11.8451 8.80756 11.518C9.13467 11.1909 9.5296 10.9396 9.96447 10.7818C10.3993 10.624 10.8635 10.5636 11.3243 10.6048C11.7837 10.5662 12.2461 10.6285 12.6788 10.7875C13.1116 10.9465 13.5044 11.1982 13.8296 11.525C14.1548 11.8518 14.4046 12.2458 14.5614 12.6794C14.7183 13.1129 14.7784 13.5755 14.7375 14.0348ZM12.7871 14.0348C12.7871 12.7822 12.1566 12.2357 11.3075 12.2357C10.4584 12.2357 9.81947 12.7822 9.81947 14.0348C9.81947 15.2874 10.4584 15.8339 11.3075 15.8339C12.1566 15.8339 12.7871 15.1529 12.7871 14.0348ZM23.6656 8.9486C23.6656 8.89816 23.6656 8.88135 23.59 8.88135C23.0769 9.12571 22.6036 9.44596 22.186 9.83133C21.9465 10.1029 21.8149 10.4528 21.8161 10.8149V15.0184C21.8161 16.8511 22.867 17.4228 24.0019 17.4228C24.468 17.451 24.9343 17.3704 25.3638 17.1874C25.3949 17.1675 25.4204 17.1402 25.438 17.1078C25.4557 17.0755 25.4648 17.0392 25.4647 17.0024V15.8086C25.4706 15.7965 25.4728 15.7829 25.4709 15.7696C25.469 15.7563 25.4631 15.7438 25.454 15.7339C25.445 15.7239 25.4332 15.7169 25.4201 15.7138C25.407 15.7106 25.3933 15.7114 25.3806 15.7162C25.1283 15.7948 24.8695 15.851 24.6072 15.8843C24.0187 15.8843 23.6656 15.6069 23.6656 14.6821V12.2777C23.6656 12.2692 23.6673 12.2608 23.6708 12.2531C23.6742 12.2453 23.6793 12.2384 23.6857 12.2328C23.6921 12.2273 23.6996 12.2231 23.7078 12.2207C23.7159 12.2183 23.7245 12.2177 23.7329 12.2189H25.3134C25.3312 12.2189 25.3483 12.2118 25.361 12.1992C25.3736 12.1866 25.3806 12.1695 25.3806 12.1516V10.899C25.3785 10.8447 25.3554 10.7934 25.3162 10.7558C25.277 10.7182 25.2248 10.6972 25.1705 10.6972H23.7329C23.7237 10.6987 23.7144 10.6979 23.7056 10.6951C23.6967 10.6922 23.6887 10.6873 23.6822 10.6807C23.6756 10.6742 23.6707 10.6661 23.6678 10.6573C23.665 10.6485 23.6642 10.6391 23.6656 10.63V8.9486ZM0.723199 10.9074C0.719615 10.8778 0.722388 10.8477 0.731334 10.8192C0.740279 10.7907 0.755191 10.7645 0.775077 10.7422C0.794962 10.7199 0.819365 10.7022 0.84666 10.6901C0.873955 10.6779 0.903515 10.6718 0.933372 10.672H3.45544C5.91867 10.672 7.18811 12.1432 7.18811 14.0348C7.18811 15.9263 5.76734 17.2714 3.42182 17.2714H2.69042C2.67258 17.2714 2.65547 17.2785 2.64286 17.2911C2.63025 17.3037 2.62316 17.3209 2.62316 17.3387V20.4324C2.62316 20.4829 2.62316 20.4997 2.5475 20.4997C2.02559 20.2513 1.54612 19.9222 1.12673 19.5245C0.881385 19.2559 0.746302 18.9047 0.74842 18.5409L0.723199 10.9074ZM5.30496 13.9843C5.30496 13.1436 4.78373 12.4122 3.39659 12.4122H2.66519C2.64798 12.4141 2.63192 12.4217 2.61968 12.434C2.60744 12.4462 2.59977 12.4623 2.59794 12.4795V15.5312C2.6 15.5476 2.60798 15.5626 2.62038 15.5734C2.63278 15.5843 2.64872 15.5902 2.66519 15.5901H3.43022C5.08638 15.5901 5.30496 14.4467 5.30496 13.9843ZM20.0255 13.7153C19.6162 13.4846 19.1693 13.3281 18.7056 13.2529L18.2516 13.1941C17.6883 13.068 17.2512 12.9755 17.2512 12.614C17.2512 12.2525 17.5454 12.0928 18.0162 12.0928C18.8047 12.1079 19.5844 12.2615 20.3197 12.5468C20.3313 12.5506 20.3436 12.5518 20.3557 12.5504C20.3679 12.5489 20.3795 12.5449 20.3899 12.5385C20.4003 12.5321 20.4092 12.5235 20.416 12.5133C20.4227 12.5031 20.4271 12.4916 20.429 12.4795V11.1344C20.4271 11.0882 20.4107 11.0438 20.382 11.0075C20.3533 10.9713 20.3138 10.945 20.2693 10.9326C19.6135 10.7204 18.9319 10.5988 18.2432 10.5711C17.4969 10.5325 16.7578 10.7327 16.1331 11.1428C15.8872 11.3194 15.6882 11.5534 15.5534 11.8245C15.4186 12.0956 15.3521 12.3954 15.3596 12.6981C15.3596 14.1525 16.5534 14.4299 17.6799 14.6905L17.8901 14.741C18.4113 14.8587 18.941 14.9764 18.941 15.3967C18.9447 15.4552 18.9362 15.5139 18.9159 15.5689C18.8956 15.6239 18.8641 15.6741 18.8233 15.7162C18.7125 15.8026 18.5854 15.8658 18.4496 15.902C18.3138 15.9381 18.1721 15.9464 18.033 15.9263C17.1773 15.8647 16.3313 15.7068 15.5109 15.4555C15.49 15.4554 15.4698 15.4631 15.4543 15.4771C15.4387 15.4911 15.429 15.5104 15.4269 15.5312V16.8343C15.4282 16.8794 15.4434 16.9231 15.4705 16.9592C15.4976 16.9953 15.5352 17.0222 15.5782 17.036C16.3243 17.2725 17.0994 17.4054 17.8817 17.4312C19.8321 17.4312 20.8409 16.6661 20.8409 15.2706C20.8551 14.9623 20.7871 14.6558 20.6438 14.3826C20.5005 14.1093 20.2871 13.879 20.0255 13.7153Z" fill="#FF5E00"/>
<path d="M30.9464 17.2886H30.9044V13.3037C30.9044 12.463 30.6101 12.0595 29.9124 12.0595C29.6148 12.0751 29.3259 12.1646 29.0717 12.3201L28.458 12.6816C28.4434 12.6925 28.4313 12.7064 28.4226 12.7223C28.4139 12.7383 28.4088 12.7559 28.4075 12.7741V17.2466H26.6421V10.9078C26.6421 10.8587 26.6616 10.8117 26.6962 10.777C26.7309 10.7423 26.778 10.7228 26.827 10.7228H28.4412C28.4448 10.7292 28.4468 10.7364 28.4468 10.7438C28.4468 10.7512 28.4448 10.7584 28.4412 10.7648V11.2608C28.4412 11.2675 28.4425 11.274 28.445 11.2801C28.4475 11.2863 28.4512 11.2918 28.4559 11.2965C28.4606 11.3012 28.4662 11.3049 28.4723 11.3074C28.4784 11.31 28.485 11.3113 28.4916 11.3113L28.542 11.2692C28.7582 11.1057 28.9958 10.9728 29.2482 10.8741C29.6607 10.7095 30.0989 10.6184 30.5429 10.6051C31.9805 10.6051 32.7371 11.4458 32.7371 12.9927V17.255L30.9464 17.2886ZM35.9401 17.2886V9.47017C35.9696 9.1078 35.8616 8.74761 35.6375 8.46134C35.2223 8.06837 34.7487 7.74222 34.2335 7.49454C34.1831 7.49454 34.1747 7.49455 34.1747 7.53658V17.2466H34.2167L35.9401 17.2886ZM14.2083 8.99098C14.368 8.99098 14.4353 8.90691 14.4353 8.73036V8.01577C14.4331 7.93697 14.4002 7.86214 14.3437 7.80718C14.2872 7.75223 14.2114 7.7215 14.1326 7.72153H8.48316C8.40513 7.72153 8.33028 7.75253 8.2751 7.80771C8.21992 7.86289 8.18892 7.93774 8.18892 8.01577V8.73036C8.18892 8.90691 8.25618 8.99098 8.41591 8.99098H14.2083ZM14.2839 6.99854C14.3848 6.99854 14.4437 6.99854 14.4689 6.88925L14.5866 6.56979C14.8052 5.94768 15.1835 4.8884 15.2591 4.62779C15.3768 4.16541 15.402 3.70303 14.7715 3.46764L14.1578 3.25747C13.9056 3.1818 13.6618 3.12295 13.4516 3.07251H13.3339C13.2576 3.07375 13.1833 3.09756 13.1205 3.14095C13.0577 3.18434 13.0091 3.24536 12.9809 3.31631C12.7594 3.81521 12.5739 4.32935 12.426 4.85478C12.4124 4.88994 12.4124 4.92891 12.426 4.96407H13.149C13.2331 4.96407 13.2751 4.96407 13.2919 4.88C13.3748 4.59249 13.4787 4.3115 13.603 4.03931C13.6127 4.01872 13.6282 4.00141 13.6476 3.98947C13.667 3.97754 13.6895 3.97149 13.7123 3.97205H13.7795L14.099 4.08134C14.155 4.11027 14.1981 4.15909 14.2199 4.21822C14.2416 4.27734 14.2405 4.34248 14.2167 4.40081C14.2167 4.40081 13.5777 6.18307 13.376 6.77155C13.3635 6.79481 13.3569 6.82081 13.3569 6.84721C13.3569 6.87362 13.3635 6.89962 13.376 6.92288C13.3916 6.94053 13.4112 6.95428 13.4331 6.96304C13.455 6.9718 13.4786 6.97532 13.5021 6.97332L14.2839 6.99854ZM11.703 6.99854C11.8459 6.99854 11.8543 6.83881 11.8543 6.83881C11.8543 6.83881 11.8964 3.47605 11.9048 3.04729C11.906 3.01937 11.9014 2.9915 11.8912 2.96545C11.8811 2.9394 11.8657 2.91574 11.8459 2.89597C11.8343 2.88072 11.8188 2.86881 11.8011 2.86144C11.7834 2.85406 11.7641 2.85147 11.745 2.85393H10.9044C10.8867 2.85293 10.869 2.85623 10.8529 2.86355C10.8368 2.87088 10.8227 2.882 10.8119 2.89597C10.7921 2.91574 10.7767 2.9394 10.7666 2.96545C10.7564 2.9915 10.7518 3.01937 10.753 3.04729C10.753 3.49286 10.8035 6.80518 10.8035 6.83881C10.8035 6.87244 10.8035 6.99854 10.9548 6.99854H11.703ZM9.09687 6.99854C9.15572 6.99854 9.19775 6.99854 9.21456 6.9481C9.22578 6.92445 9.2316 6.89861 9.2316 6.87243C9.2316 6.84626 9.22578 6.82042 9.21456 6.79677C9.02961 6.20829 8.37387 4.44284 8.37387 4.42602C8.3526 4.36654 8.35366 4.30135 8.37686 4.24258C8.40005 4.18382 8.44381 4.13548 8.49998 4.10656L8.81944 3.99727H8.87829C8.90245 3.99498 8.92672 4.00022 8.94779 4.01226C8.96886 4.0243 8.98569 4.04255 8.99598 4.06453C9.1173 4.33698 9.21845 4.61796 9.29863 4.90522C9.29863 4.96407 9.36589 4.98929 9.44996 4.98929H10.0721C10.0864 4.99666 10.1022 5.00051 10.1183 5.00051C10.1344 5.00051 10.1502 4.99666 10.1645 4.98929C10.1734 4.97243 10.178 4.95368 10.178 4.93464C10.178 4.91561 10.1734 4.89686 10.1645 4.88C10.0204 4.35336 9.83487 3.83894 9.60969 3.34153C9.58503 3.26991 9.53848 3.20783 9.47664 3.16409C9.41479 3.12034 9.34076 3.09713 9.265 3.09773H9.1389C8.92873 3.14818 8.68493 3.20702 8.43272 3.28269L7.81902 3.49286C7.18009 3.72825 7.20531 4.19063 7.33142 4.65301C7.40708 4.93044 7.77698 5.9729 8.00397 6.59501C8.05441 6.72952 8.08804 6.83881 8.12167 6.91447C8.13324 6.95074 8.15739 6.98167 8.18976 7.00171C8.22213 7.02175 8.26059 7.02957 8.29821 7.02376L9.09687 6.99854ZM11.3079 2.17297C11.3482 2.17251 11.387 2.15759 11.4172 2.13094C11.6694 1.92123 11.8977 1.68441 12.0981 1.42476C12.1093 1.4138 12.1182 1.40072 12.1243 1.38629C12.1303 1.37185 12.1335 1.35635 12.1335 1.34069C12.1335 1.32503 12.1303 1.30953 12.1243 1.2951C12.1182 1.28066 12.1093 1.26758 12.0981 1.25662C11.8754 0.973701 11.6185 0.719547 11.3331 0.5H11.1986C10.9113 0.717304 10.654 0.971727 10.4336 1.25662C10.4224 1.26758 10.4135 1.28066 10.4074 1.2951C10.4014 1.30953 10.3982 1.32503 10.3982 1.34069C10.3982 1.35635 10.4014 1.37185 10.4074 1.38629C10.4135 1.40072 10.4224 1.4138 10.4336 1.42476C10.6435 1.69213 10.8833 1.9347 11.1482 2.14775C11.1627 2.16167 11.1798 2.17255 11.1986 2.17977C11.2173 2.18699 11.2373 2.19039 11.2574 2.18979L11.3079 2.17297Z" fill="#FF5E00"/>
</svg>
