<svg width="44" height="20" viewBox="0 0 44 20" fill="none" xmlns="http://www.w3.org/2000/svg">
<path d="M7.83637 9.18436C7.02445 8.89699 6.17846 8.71693 5.31989 8.64876C4.8233 8.6158 4.33989 8.51582 3.86966 8.34883C3.77078 8.30961 3.68608 8.2414 3.62667 8.15317C3.56726 8.06494 3.53592 7.9608 3.53677 7.85443C3.53799 7.75694 3.56257 7.66117 3.60845 7.57515C3.65433 7.48913 3.72017 7.41536 3.80044 7.36003C4.05 7.20292 4.34365 7.13066 4.63762 7.15403C4.97876 7.14415 5.31659 7.23644 5.60334 7.42101C5.81167 7.57492 5.95925 7.79717 6.02029 8.04889L9.23551 7.73083C9.0542 7.2184 8.76921 6.74884 8.39833 6.35146C8.04667 6.00191 7.61506 5.74339 7.14092 5.59833C6.37762 5.40583 5.59067 5.32369 4.80407 5.35443C3.99525 5.32763 3.18749 5.4334 2.41284 5.66755C1.86529 5.84463 1.37944 6.17387 1.01205 6.61679C0.67256 7.04691 0.492929 7.58251 0.504465 8.13129C0.497873 8.64547 0.66432 9.14975 0.97579 9.5601C1.26748 9.96221 1.66959 10.2704 2.13433 10.45C2.93399 10.7104 3.75435 10.9022 4.58653 11.0235C5.08533 11.0872 5.57148 11.2037 6.045 11.3729C6.27572 11.4685 6.42569 11.6926 6.42899 11.9414C6.42843 12.049 6.40155 12.1548 6.35071 12.2496C6.29986 12.3444 6.2266 12.4253 6.13729 12.4853C5.82747 12.6979 5.45338 12.8 5.07928 12.777C4.72727 12.7946 4.37826 12.7043 4.07895 12.5182C3.79649 12.3015 3.59182 11.9991 3.49556 11.6563L0.130371 11.9744C0.291874 12.7819 0.766495 13.4906 1.45041 13.9487C2.51501 14.4975 3.7098 14.7397 4.9046 14.6441C5.82747 14.6804 6.75034 14.5337 7.61554 14.2124C8.20774 13.9835 8.71638 13.5801 9.07401 13.0555C9.37065 12.6105 9.5305 12.0914 9.53545 11.5591C9.53824 11.0598 9.38562 10.572 9.09873 10.1633C8.78186 9.72137 8.34324 9.38124 7.83637 9.18436Z" fill="#F7F7F7"/>
<path fill-rule="evenodd" clip-rule="evenodd" d="M26.9335 5.74804C27.4394 5.48436 28.003 5.34758 28.5749 5.35417C29.6625 5.30803 30.7008 5.82385 31.3188 6.71871C31.9913 7.71151 32.3317 8.89202 32.2911 10.0905C32.3751 11.3118 31.9969 12.5201 31.2314 13.4755C30.8976 13.8528 30.4855 14.1527 30.0238 14.3542C29.5621 14.5557 29.062 14.654 28.5584 14.6422C28.0692 14.6484 27.5836 14.5576 27.1296 14.3753C26.6949 14.1919 26.3023 13.9216 25.976 13.5809V18.2859H22.5498V5.55523H25.7255V6.86868C26.0501 6.42042 26.4605 6.03974 26.9335 5.74804ZM27.507 12.0994C27.699 12.1005 27.8886 12.0568 28.0608 11.9719C28.233 11.8869 28.3831 11.763 28.499 11.6099C28.8122 11.1155 28.9522 10.5305 28.8995 9.94877C28.944 9.38845 28.7973 8.82813 28.4826 8.3634C28.364 8.20588 28.2104 8.07815 28.0339 7.99033C27.8574 7.90251 27.6629 7.85702 27.4658 7.85747C27.2584 7.85496 27.0531 7.89965 26.8655 7.98816C26.678 8.07667 26.513 8.20667 26.383 8.36835C26.0518 8.85285 25.8985 9.43954 25.9496 10.0246C25.9051 10.5816 26.0617 11.137 26.3913 11.5902C26.5272 11.7532 26.6981 11.8836 26.8912 11.9717C27.0843 12.0598 27.2947 12.1035 27.507 12.0994ZM43.2634 12.5509C43.2546 12.8805 43.2804 13.2085 43.3408 13.5348C43.4232 13.849 43.5386 14.1511 43.6869 14.4412H40.5063C40.4071 14.2748 40.3227 14.1 40.2542 13.9188C40.2021 13.734 40.1635 13.5456 40.1388 13.3552C39.7568 13.7398 39.3078 14.0515 38.8138 14.2747C38.1471 14.5337 37.4359 14.6586 36.7209 14.6422C35.8565 14.7037 35.0002 14.4417 34.3181 13.9072C34.0561 13.6836 33.8466 13.4049 33.7048 13.0909C33.5629 12.777 33.4921 12.4356 33.4974 12.0912C33.4743 11.4814 33.6869 10.8848 34.0907 10.4267C34.7016 9.88726 35.463 9.54793 36.2726 9.45437C37.1016 9.29588 37.9264 9.11619 38.7462 8.91548C39.1527 8.80122 39.5527 8.66608 39.946 8.51007C39.9794 8.19484 39.887 7.87918 39.6889 7.63169C39.4286 7.43532 39.1034 7.34519 38.7792 7.37955C38.3458 7.34971 37.9128 7.44282 37.53 7.64817C37.2743 7.84608 37.0903 8.12212 37.006 8.43427L33.7644 8.09148C33.8501 7.61357 34.0297 7.15543 34.2934 6.74837C34.5571 6.39406 34.8982 6.10401 35.2888 5.89966C35.6925 5.69696 36.1259 5.56017 36.5725 5.49755C37.156 5.39752 37.7473 5.35009 38.3392 5.35582C39.1582 5.33934 39.9789 5.39702 40.7881 5.52721C41.3583 5.6195 41.8923 5.8667 42.329 6.24244C42.6454 6.53249 42.8794 6.90163 43.0129 7.30869C43.1727 7.73057 43.2568 8.17553 43.2634 8.62708V12.5509ZM39.7433 11.8028C39.8916 11.4781 39.9608 11.1238 39.946 10.7695V10.2256C39.4675 10.3958 38.9813 10.5437 38.4892 10.6689C38.0187 10.7532 37.5722 10.9388 37.1807 11.2128C37.0917 11.2942 37.0206 11.3932 36.9718 11.5035C36.923 11.6138 36.8975 11.733 36.8971 11.8536C36.8966 11.9742 36.9211 12.0936 36.9691 12.2042C37.017 12.3149 37.0874 12.4144 37.1757 12.4966C37.4081 12.6828 37.7014 12.7734 37.9964 12.752C38.3672 12.7536 38.7298 12.6581 39.0511 12.4751C39.3428 12.3235 39.5834 12.0912 39.7433 11.8028Z" fill="#F7F7F7"/>
<path d="M10.0317 2.06023V17.9403L21.6715 20.0002V0.000244141L10.0317 2.06023Z" fill="#F7F7F7"/>
<path fill-rule="evenodd" clip-rule="evenodd" d="M14.1761 10.8433H20.9757V10.4593C21.0168 9.47521 20.8189 8.49585 20.3989 7.60495C20.0286 6.88723 19.444 6.30261 18.7262 5.93224C17.7863 5.50483 16.7583 5.30712 15.7269 5.35545C15.0605 5.31728 14.3931 5.41135 13.7632 5.63224C13.1334 5.85314 12.5534 6.1965 12.0568 6.64253C11.6124 7.08118 11.2645 7.60784 11.0355 8.18876C10.8065 8.76969 10.7014 9.39205 10.7269 10.016C10.7049 10.9105 10.9344 11.7933 11.3894 12.5638C11.7832 13.2394 12.3617 13.7899 13.0604 14.1458C13.9339 14.515 14.8782 14.6864 15.8258 14.6435C16.8934 14.7007 17.9592 14.5012 18.9339 14.0618C19.7201 13.6097 20.3614 12.9432 20.7829 12.1402L17.4424 11.832C17.2787 12.0551 17.0815 12.2418 16.8508 12.3924C16.5624 12.5572 16.2345 12.6429 15.9016 12.6429C15.6578 12.651 15.4153 12.6033 15.1928 12.5033C14.9703 12.4034 14.7736 12.2538 14.6178 12.0661C14.3512 11.712 14.1973 11.2859 14.1761 10.8433ZM16.9975 7.79777C17.3271 8.19658 17.515 8.69428 17.5248 9.21174H14.1844C14.2058 8.78491 14.3409 8.37127 14.5766 8.0153C14.716 7.83462 14.8913 7.68472 15.0914 7.57498C15.2916 7.46525 15.5122 7.39807 15.7395 7.37764C15.9668 7.35721 16.1959 7.38399 16.4124 7.45629C16.6289 7.52858 16.8281 7.64484 16.9975 7.79777Z" fill="#1A1A1A"/>
</svg>
