<svg width="17" height="20" viewBox="0 0 17 20" fill="none" xmlns="http://www.w3.org/2000/svg">
<path d="M8.33366 19.6C7.82068 19.3717 3.74176 17.6154 2.42434 16.5191C1.718 15.9328 1.15515 15.1926 0.778861 14.3553C0.402568 13.518 0.222805 12.6057 0.253328 11.6883V2.19184C2.49503 1.00106 5.207 0.399994 8.33366 0.399994C11.4603 0.399994 14.1591 1.00484 16.414 2.19184V11.6777C16.4452 12.5954 16.2661 13.5081 15.8904 14.346C15.5147 15.1838 14.9523 15.9247 14.2464 16.5119C12.9497 17.5658 8.82169 19.3857 8.34765 19.5928L8.33366 19.6Z" fill="#FFB500"/>
<path d="M11.442 8.39603C11.4594 7.37157 12.3008 6.5539 13.3245 6.56562C13.8747 6.53672 14.4181 6.69796 14.8635 7.02227V8.24141C14.5314 7.89687 14.0804 7.69204 13.6024 7.6687C13.2055 7.6687 12.7908 7.8407 12.7768 8.3397C12.7628 8.83869 13.1775 9.04283 13.7007 9.35848C14.8741 10.0616 15.1058 10.6653 15.0744 11.4841C15.0722 11.7434 15.0168 11.9995 14.9117 12.2366C14.8066 12.4736 14.654 12.6867 14.4634 12.8625C14.2728 13.0383 14.0482 13.1731 13.8034 13.2588C13.5586 13.3444 13.2989 13.3789 13.0403 13.3603C12.4958 13.3557 11.9624 13.2066 11.4945 12.9282V11.6429C11.8653 11.9784 12.3378 12.18 12.8365 12.2156C12.9453 12.2298 13.0559 12.2198 13.1603 12.1862C13.2648 12.1527 13.3605 12.0965 13.4408 12.0217C13.521 11.9468 13.5837 11.8552 13.6244 11.7533C13.665 11.6515 13.6827 11.5418 13.6761 11.4323C13.6761 10.9931 13.416 10.7508 12.8014 10.3784C11.6453 9.70022 11.4348 9.14225 11.4348 8.39376L11.442 8.39603ZM8.04124 7.79874C8.19736 7.7307 8.36634 7.69554 8.53267 7.69667C9.3477 7.69667 9.6849 8.34688 9.6849 9.92061C9.6849 11.4943 9.29856 12.1971 8.49033 12.1971C8.33421 12.196 8.17959 12.1676 8.03368 12.1128V7.79912L8.04124 7.79874ZM8.04124 16.2129H6.63535V7.0752C7.20284 6.72713 7.86014 6.5536 8.52549 6.5762C10.2013 6.5762 11.1218 7.84789 11.1218 9.89263C11.1218 11.9374 10.2259 13.3463 8.66234 13.3463C8.44875 13.3501 8.23517 13.3229 8.0299 13.2654V16.2095L8.04124 16.2129ZM1.71722 11.1227V6.72401H3.12235V11.1859C3.12235 11.5828 3.21685 12.1733 3.86328 12.1733C4.0901 12.1789 4.32145 12.1166 4.51727 11.9941V6.72439H5.9224V12.7993C5.29155 13.1927 4.55748 13.3884 3.81452 13.3614C2.40939 13.3614 1.70664 12.6091 1.70664 11.1197L1.71722 11.1227ZM1.01409 11.6883C0.951715 13.3259 1.65296 14.9 2.91179 15.9498C4.00806 16.8457 7.38763 18.3741 8.34026 18.7925C9.27776 18.3778 12.6509 16.8672 13.7649 15.9498C14.3866 15.4331 14.8811 14.7803 15.2101 14.0419C15.5391 13.3036 15.6938 12.4994 15.6623 11.6917V2.3922C10.9638 1.95633 5.40941 2.22397 1.01107 6.25677V11.6883H1.01409Z" fill="#1A1A1A"/>
</svg>
